<svg width="95" height="106" viewBox="0 0 95 106" fill="none" xmlns="http://www.w3.org/2000/svg">
<g id="img-questions-puzzle">
<path id="Combined Shape Copy 2" fill-rule="evenodd" clip-rule="evenodd" d="M35.6596 83.7457C34.5829 82.7888 33.1611 82.2069 31.6024 82.2069C28.2414 82.2069 25.5167 84.9125 25.5167 88.2501C25.5167 91.5876 28.2414 94.2932 31.6024 94.2932C33.1611 94.2932 34.5829 93.7114 35.6596 92.7545V105.876H71.1596V70.6242H57.3511C58.4601 71.6342 59.1522 73.0656 59.1522 74.653C59.1522 77.7124 56.5812 80.1925 53.4096 80.1925C50.238 80.1925 47.6669 77.7124 47.6669 74.653C47.6669 73.0656 48.3591 71.6342 49.4681 70.6242H35.6596V83.7457Z" fill="#55ACED"/>
<path id="Combined Shape Copy 4" fill-rule="evenodd" clip-rule="evenodd" d="M40.3976 58.7933C38.6692 58.7933 37.1092 58.0779 36.0014 56.929L36 70.6243H22.2403C23.5183 69.6083 24.3331 68.0696 24.3331 66.3473C24.3331 63.2879 21.762 60.8077 18.5904 60.8077C15.4188 60.8077 12.8478 63.2879 12.8478 66.3473C12.8478 68.0696 13.6625 69.6083 14.9406 70.6243H0.74818V35.1243H15.6816C14.0398 34.042 12.9574 32.1894 12.9574 30.0859C12.9574 26.7483 15.6821 24.0427 19.0431 24.0427C22.4042 24.0427 25.1289 26.7483 25.1289 30.0859C25.1289 32.1894 24.0465 34.042 22.4047 35.1243H36.0036L36.0022 48.5705C37.11 47.4221 38.6697 46.707 40.3976 46.707C43.7586 46.707 46.4833 49.4126 46.4833 52.7502C46.4833 56.0877 43.7586 58.7933 40.3976 58.7933Z" fill="#55ACED"/>
<path id="Combined Shape Copy 5" fill-rule="evenodd" clip-rule="evenodd" d="M64.4364 58.0598L94.8677 39.7791L87.7909 28.0013C87.4301 29.5299 86.4806 30.9141 85.0331 31.7838C82.1723 33.5028 78.4498 32.5608 76.7187 29.6798C74.9877 26.7988 75.9035 23.0698 78.7644 21.3509C80.2118 20.4812 81.8798 20.2926 83.3989 20.6917L76.7098 9.55928L64.5073 16.8913C65.2015 15.1797 65.1078 13.1675 64.0788 11.4549C62.3477 8.5739 58.6252 7.6319 55.7644 9.35086C52.9035 11.0698 51.9877 14.7988 53.7187 17.6798C54.7478 19.3924 56.4805 20.4198 58.3177 20.6104L46.2804 27.8431L53.59 40.0084C53.8027 38.3896 54.7019 36.8987 56.1782 36.0117C58.8006 34.436 62.2507 35.3624 63.8842 38.081C65.5177 40.7996 64.716 44.2808 62.0936 45.8565C60.6173 46.7436 58.8787 46.8376 57.3496 46.2655L64.4364 58.0598Z" fill="url(#paint0_linear)"/>
<path id="Combined Shape Copy 3" fill-rule="evenodd" clip-rule="evenodd" d="M24.669 66.4429C24.669 68.0622 24.041 69.5338 23.0169 70.6241H36L36.0962 84.1444C35.0974 83.1316 33.7305 82.5074 32.223 82.5074C29.1636 82.5074 26.6834 85.0785 26.6834 88.25C26.6834 91.4216 29.1636 93.9927 32.223 93.9927C33.7599 93.9927 35.1507 93.3438 36.1542 92.296L36.2518 106H0.999968L0.911185 93.5267C1.99186 94.5468 3.44506 95.1715 5.04313 95.1715C8.38068 95.1715 11.0863 92.4468 11.0863 89.0857C11.0863 85.7247 8.38068 83 5.04313 83C3.41389 83 1.93524 83.6493 0.848393 84.7049L0.748169 70.6241H14.2349C13.2107 69.5338 12.5827 68.0622 12.5827 66.4429C12.5827 63.0818 15.2883 60.3572 18.6259 60.3572C21.9634 60.3572 24.669 63.0818 24.669 66.4429Z" fill="#1494D9"/>
</g>
<defs>
<linearGradient id="paint0_linear" x1="55.0433" y1="-12.868" x2="25.9511" y2="34.3499" gradientUnits="userSpaceOnUse">
<stop stop-color="#83E7FE"/>
<stop offset="1" stop-color="#8CC0FB"/>
</linearGradient>
</defs>
</svg>
